# xmcd
#
# Track frame offsets: 
#        150
#        27394
#        45998
#        70561
#        96464
#        116833
#        147356
#        170891
#        208205
#        231721
#        256198
#        284113
#        313828
#        329203
#
# Disc length: 4717 seconds
#
# Revision: 9
# Processed by: cddbd v1.5.2PL0 Copyright (c) Steve Scherf et al.
# Submitted via: ExactAudioCopyFreeDBPlugin 1.0
#
DISCID=eb126b0e
DTITLE=Dżem - Złoty Paw
DYEAR=2005
DGENRE=blues
TTITLE0=Zloty Paw
TTITLE1=Harley Moj
TTITLE2=Naiwne Pytania
TTITLE3=Sen o Victorii
TTITLE4=Jak Malowany Ptak
TTITLE5=Autsajder
TTITLE6=Mala Aleja Roz
TTITLE7=Modlitwa III - Pozwol Mi
TTITLE8=Czerwony Jak Cegla
TTITLE9=Whisky
TTITLE10=Wehikul Czasu - To Bylby Cud
TTITLE11=List do M.
TTITLE12=Zapal Swieczke
TTITLE13=Skazany Na Bluesa
EXTD=
EXTT0=
EXTT1=
EXTT2=
EXTT3=
EXTT4=
EXTT5=
EXTT6=
EXTT7=
EXTT8=
EXTT9=
EXTT10=
EXTT11=
EXTT12=
EXTT13=
PLAYORDER=
